<svg width="15" height="16" viewBox="0 0 15 16" fill="none" xmlns="http://www.w3.org/2000/svg">
<path fill-rule="evenodd" clip-rule="evenodd" d="M13.75 8.44888C13.75 11.9007 10.9518 14.6989 7.5 14.6989C4.04822 14.6989 1.25 11.9007 1.25 8.44888C1.25 4.9971 4.04822 2.19888 7.5 2.19888C10.9518 2.19888 13.75 4.9971 13.75 8.44888ZM10.019 6.55493C10.202 6.73799 10.202 7.03478 10.019 7.21784L6.89396 10.3428C6.7109 10.5259 6.4141 10.5259 6.23104 10.3428L4.98104 9.09284C4.79799 8.90978 4.79799 8.61298 4.98104 8.42993C5.1641 8.24687 5.4609 8.24687 5.64396 8.42993L6.5625 9.34847L7.95927 7.9517L9.35604 6.55493C9.5391 6.37187 9.8359 6.37187 10.019 6.55493Z" fill="#5ABF3C"/>
</svg>
