<svg width="15" height="15" viewBox="0 0 15 15" fill="none" xmlns="http://www.w3.org/2000/svg">
<path fill-rule="evenodd" clip-rule="evenodd" d="M13.75 7.5C13.75 10.9518 10.9518 13.75 7.5 13.75C4.04822 13.75 1.25 10.9518 1.25 7.5C1.25 4.04822 4.04822 1.25 7.5 1.25C10.9518 1.25 13.75 4.04822 13.75 7.5ZM5.60602 5.60603C5.78908 5.42297 6.08587 5.42297 6.26893 5.60603L7.49998 6.83708L8.73102 5.60605C8.91408 5.42299 9.21087 5.42299 9.39393 5.60605C9.57699 5.7891 9.57699 6.0859 9.39393 6.26896L8.16289 7.5L9.39392 8.73102C9.57698 8.91408 9.57698 9.21088 9.39392 9.39393C9.21086 9.57699 8.91406 9.57699 8.731 9.39393L7.49998 8.16291L6.26894 9.39395C6.08589 9.577 5.78909 9.577 5.60603 9.39395C5.42297 9.21089 5.42297 8.91409 5.60603 8.73103L6.83707 7.5L5.60602 6.26895C5.42296 6.08589 5.42296 5.78909 5.60602 5.60603Z" fill="#E90814"/>
</svg>
