<svg width="15" height="16" viewBox="0 0 15 16" fill="none" xmlns="http://www.w3.org/2000/svg">
<path fill-rule="evenodd" clip-rule="evenodd" d="M13.75 8.30927C13.75 4.85749 10.9518 2.05927 7.5 2.05927C4.04822 2.05927 1.25 4.85749 1.25 8.30927C1.25 11.761 4.04822 14.5593 7.5 14.5593C10.9518 14.5593 13.75 11.761 13.75 8.30927ZM7.5 4.71552C7.75888 4.71552 7.96875 4.92538 7.96875 5.18427V8.93427C7.96875 9.19315 7.75888 9.40302 7.5 9.40302C7.24112 9.40302 7.03125 9.19315 7.03125 8.93427V5.18427C7.03125 4.92538 7.24112 4.71552 7.5 4.71552ZM7.5 11.4343C7.84518 11.4343 8.125 11.1544 8.125 10.8093C8.125 10.4641 7.84518 10.1843 7.5 10.1843C7.15482 10.1843 6.875 10.4641 6.875 10.8093C6.875 11.1544 7.15482 11.4343 7.5 11.4343Z" fill="#1C274C"/>
</svg>
